<?xml version="1.0" encoding="utf-8"?>
<!-- Generator: Adobe Illustrator 24.0.2, SVG Export Plug-In . SVG Version: 6.00 Build 0)  -->
<svg version="1.1" id="Layer_1" xmlns="http://www.w3.org/2000/svg" xmlns:xlink="http://www.w3.org/1999/xlink" x="0px" y="0px"
	 viewBox="0 0 234.72 234.72" enable-background="new 0 0 234.72 234.72" xml:space="preserve">
<path fill="#FFC84D" d="M231.81,92.811l-44.14,57.9l0.19,1l12.86,64.1c0.556,2.658,0.326,5.42-0.66,7.95
	c-2.886,7.316-11.156,10.907-18.472,8.021c-0.477-0.188-0.944-0.402-1.398-0.641l-63.47-33.43l-58.33,32.4
	c-6.863,3.784-15.494,1.288-19.278-5.574c-1.615-2.929-2.144-6.335-1.492-9.616l12.67-63.21l0.19-1L3.32,93.191
	c-4.971-6.052-4.094-14.987,1.958-19.958c2.529-2.077,5.699-3.216,8.972-3.222h59.89l30.27-60.3
	c3.581-7.008,12.165-9.787,19.173-6.206c2.718,1.389,4.918,3.613,6.277,6.346l29.42,60.17h61.21
	c7.859,0.028,14.208,6.421,14.18,14.28c-0.011,3.076-1.018,6.065-2.87,8.52L231.81,92.811z"/>
<path fill="#FFB232" d="M42.34,228.541c4.463,3.852,10.86,4.495,16,1.61l58.38-32.44v-71L42.34,228.541z M116.72,126.781
	L1.09,78.951c-1.964,4.79-1.109,10.275,2.22,14.24l47.17,57.52l-0.19,1L116.72,126.781z M104.41,9.711l-30.28,60.3h-1.28
	l43.87,56.77V1.941C111.487,2.026,106.739,5.024,104.41,9.711z M220.5,70.011H160l-43.28,56.77l116.75-48.3
	C231.245,73.305,226.134,69.967,220.5,70.011z M200.72,215.811l-12.86-64.1l-71.14-24.93l78.48,103.27
	c2.189-1.591,3.878-3.773,4.87-6.29C201.053,221.23,201.279,218.468,200.72,215.811z"/>
</svg>
